Exact Audio Copy V0.99 prebeta 3 from 28. July 2007

EAC extraction logfile from 3. September 2009, 3:41

The Beatles / Yellow Submarine (2009 Stereo Remaster)

Used drive  : TSSTcorpCDDVDW TS-L632H   Adapter: 2  ID: 0

Read mode               : Secure
Utilize accurate stream : Yes
Defeat audio cache      : Yes
Make use of C2 pointers : No

Read offset correction                      : 6
Overread into Lead-In and Lead-Out          : No
Fill up missing offset samples with silence : Yes
Delete leading and trailing silent blocks   : No
Null samples used in CRC calculations       : Yes
Used interface                              : Native Win32 interface for Win NT & 2000
Gap handling                                : Appended to previous track

Used output format              : User Defined Encoder
Selected bitrate                : 320 kBit/s
Quality                         : High
Add ID3 tag                     : No
Command line compressor         : C:\Program Files\FLAC\flac.exe
Additional command line options : -V -8 -T "artist=%a" -T "title=%t" -T "album=%g" -T "date=%y" -T "tracknumber=%n" -T "genre=%m" %s  


TOC of the extracted CD

     Track |   Start  |  Length  | Start sector | End sector 
    ---------------------------------------------------------
        1  |  0:00.00 |  2:39.54 |         0    |    11978   
        2  |  2:39.54 |  3:24.37 |     11979    |    27315   
        3  |  6:04.16 |  2:10.67 |     27316    |    37132   
        4  |  8:15.08 |  3:11.23 |     37133    |    51480   
        5  | 11:26.31 |  6:25.01 |     51481    |    80356   
        6  | 17:51.32 |  3:51.16 |     80357    |    97697   
        7  | 21:42.48 |  2:20.55 |     97698    |   108252   
        8  | 24:03.28 |  3:00.16 |    108253    |   121768   
        9  | 27:03.44 |  2:16.52 |    121769    |   132020   
       10  | 29:20.21 |  3:36.52 |    132021    |   148272   
       11  | 32:56.73 |  2:19.27 |    148273    |   158724   
       12  | 35:16.25 |  2:12.58 |    158725    |   168682   
       13  | 37:29.08 |  2:14.02 |    168683    |   178734   
       14  | 42:15.10 | 23:36.13 |    190135    |   296347   


Track  1

     Filename C:\Users\Doug\Desktop\FLAC\The Beatles - 2009 - Yellow Submarine (2009 Stereo Remaster) [FLAC]\01 - Yellow Submarine.wav

     Pre-gap length  0:00:02.00

     Peak level 96.8 %
     Track quality 99.9 %
     Test CRC 721D42AB
     Copy CRC 721D42AB
     Track not present in AccurateRip database
     Copy OK

Track  2

     Filename C:\Users\Doug\Desktop\FLAC\The Beatles - 2009 - Yellow Submarine (2009 Stereo Remaster) [FLAC]\02 - Only A Northern Song.wav

     Pre-gap length  0:00:01.52

     Peak level 95.8 %
     Track quality 100.0 %
     Test CRC 68E8E61B
     Copy CRC 68E8E61B
     Track not present in AccurateRip database
     Copy OK

Track  3

     Filename C:\Users\Doug\Desktop\FLAC\The Beatles - 2009 - Yellow Submarine (2009 Stereo Remaster) [FLAC]\03 - All Together Now.wav

     Pre-gap length  0:00:01.37

     Peak level 95.8 %
     Track quality 100.0 %
     Test CRC 42303FF4
     Copy CRC 42303FF4
     Track not present in AccurateRip database
     Copy OK

Track  4

     Filename C:\Users\Doug\Desktop\FLAC\The Beatles - 2009 - Yellow Submarine (2009 Stereo Remaster) [FLAC]\04 - Hey Bulldog.wav

     Pre-gap length  0:00:01.22

     Peak level 95.8 %
     Track quality 100.0 %
     Test CRC 29B9CE90
     Copy CRC 29B9CE90
     Track not present in AccurateRip database
     Copy OK

Track  5

     Filename C:\Users\Doug\Desktop\FLAC\The Beatles - 2009 - Yellow Submarine (2009 Stereo Remaster) [FLAC]\05 - It's All To Much.wav

     Pre-gap length  0:00:01.46

     Peak level 95.8 %
     Track quality 100.0 %
     Test CRC 14414512
     Copy CRC 14414512
     Track not present in AccurateRip database
     Copy OK

Track  6

     Filename C:\Users\Doug\Desktop\FLAC\The Beatles - 2009 - Yellow Submarine (2009 Stereo Remaster) [FLAC]\06 - All You Need Is Love.wav

     Peak level 95.8 %
     Track quality 100.0 %
     Test CRC B307EE83
     Copy CRC B307EE83
     Track not present in AccurateRip database
     Copy OK

Track  7

     Filename C:\Users\Doug\Desktop\FLAC\The Beatles - 2009 - Yellow Submarine (2009 Stereo Remaster) [FLAC]\07 - Pepperland.wav

     Pre-gap length  0:00:02.22

     Peak level 95.8 %
     Track quality 100.0 %
     Test CRC 8B80EFDA
     Copy CRC 8B80EFDA
     Track not present in AccurateRip database
     Copy OK

Track  8

     Filename C:\Users\Doug\Desktop\FLAC\The Beatles - 2009 - Yellow Submarine (2009 Stereo Remaster) [FLAC]\08 - Sea of Time.wav

     Pre-gap length  0:00:01.20

     Peak level 92.9 %
     Track quality 100.0 %
     Test CRC F9A71C0C
     Copy CRC F9A71C0C
     Track not present in AccurateRip database
     Copy OK

Track  9

     Filename C:\Users\Doug\Desktop\FLAC\The Beatles - 2009 - Yellow Submarine (2009 Stereo Remaster) [FLAC]\09 - Sea of Holes.wav

     Pre-gap length  0:00:00.02

     Peak level 87.6 %
     Track quality 100.0 %
     Test CRC 7439FAB8
     Copy CRC 7439FAB8
     Track not present in AccurateRip database
     Copy OK

Track 10

     Filename C:\Users\Doug\Desktop\FLAC\The Beatles - 2009 - Yellow Submarine (2009 Stereo Remaster) [FLAC]\10 - Sea of Monsters.wav

     Pre-gap length  0:00:00.25

     Peak level 95.7 %
     Track quality 100.0 %
     Test CRC AE185808
     Copy CRC AE185808
     Track not present in AccurateRip database
     Copy OK

Track 11

     Filename C:\Users\Doug\Desktop\FLAC\The Beatles - 2009 - Yellow Submarine (2009 Stereo Remaster) [FLAC]\11 - March of the Meanies.wav

     Pre-gap length  0:00:01.26

     Peak level 92.3 %
     Track quality 100.0 %
     Test CRC 8E090FD9
     Copy CRC 8E090FD9
     Track not present in AccurateRip database
     Copy OK

Track 12

     Filename C:\Users\Doug\Desktop\FLAC\The Beatles - 2009 - Yellow Submarine (2009 Stereo Remaster) [FLAC]\12 - Pepperland Laid Waste.wav

     Pre-gap length  0:00:01.32

     Peak level 95.8 %
     Track quality 100.0 %
     Test CRC 72D9DB4F
     Copy CRC 72D9DB4F
     Track not present in AccurateRip database
     Copy OK

Track 13

     Filename C:\Users\Doug\Desktop\FLAC\The Beatles - 2009 - Yellow Submarine (2009 Stereo Remaster) [FLAC]\13 - Yellow Submarine in Pepperland.wav

     Pre-gap length  0:00:02.00

     Peak level 95.8 %
     Track quality 100.0 %
     Test CRC 4587AC07
     Copy CRC 4587AC07
     Track not present in AccurateRip database
     Copy OK


None of the tracks are present in the AccurateRip database

No errors occurred

End of status report
